<svg width="476" height="516" viewBox="0 0 476 516" fill="none" xmlns="http://www.w3.org/2000/svg">
<path d="M193.773 451.402C87.9687 415.953 30.6176 300.591 65.7991 193.982C68.3964 186.112 76.9123 181.814 84.7234 184.431L191.237 220.117C199.048 222.735 203.314 231.315 200.717 239.186C190.328 270.667 207.391 304.99 238.635 315.458C269.879 325.926 303.943 308.733 314.332 277.252C316.929 269.381 325.445 265.083 333.256 267.7L439.77 303.387C447.581 306.004 451.847 314.585 449.25 322.455C414.068 429.063 299.577 486.851 193.773 451.402ZM90.1906 218.046C69.5477 304.496 118.006 394.232 203.217 422.782C288.429 451.331 380.569 408.702 415.413 327.01L336.948 300.721C316.862 338.886 271.441 358.233 229.19 344.078C186.94 329.922 162.061 287.021 168.656 244.336L90.1906 218.046Z" fill="#E8FBF4"/>
<path d="M316.551 79.3438C218.558 46.5118 112.582 100.001 79.998 198.739L186.512 234.426C199.498 195.073 242.078 173.582 281.133 186.668C320.188 199.753 341.517 242.656 328.531 282.008L435.045 317.695C467.629 218.957 414.544 112.176 316.551 79.3438Z" fill="#E8FBF4"/>
<path d="M430.325 332.006L323.811 296.319C316 293.702 311.734 285.122 314.332 277.251C324.721 245.77 307.658 211.447 276.414 200.979C245.17 190.511 211.106 207.704 200.717 239.185C198.119 247.056 189.604 251.354 181.793 248.737L75.2786 213.05C67.4675 210.433 63.2017 201.852 65.799 193.982C100.981 87.3734 215.472 29.5863 321.276 65.0353C427.08 100.484 484.431 215.846 449.249 322.455C446.652 330.325 438.136 334.623 430.325 332.006ZM346.393 272.101L425.213 298.509C445.501 211.941 397.042 122.205 311.831 93.655C226.62 65.1054 134.48 107.735 99.6352 189.426L178.456 215.835C198.187 177.551 243.608 158.203 285.858 172.359C328.109 186.515 352.987 229.416 346.393 272.101Z" fill="#E8FBF4"/>
<path d="M229.188 344.077C182.321 328.374 156.727 276.891 172.31 229.668C187.894 182.446 238.99 156.656 285.856 172.359C332.722 188.061 358.317 239.545 342.733 286.767C327.149 333.99 276.054 359.779 229.188 344.077ZM276.411 200.978C245.167 190.51 211.103 207.703 200.714 239.185C190.325 270.666 207.388 304.989 238.632 315.457C269.876 325.925 303.94 308.732 314.329 277.251C324.718 245.769 307.655 211.446 276.411 200.978Z" fill="#E8FBF4"/>
<path d="M222.016 246.323C218.885 255.811 219.623 266.163 224.067 275.103C228.512 284.043 236.299 290.838 245.715 293.993C255.132 297.148 265.406 296.404 274.279 291.926C283.151 287.448 289.895 279.602 293.026 270.114C296.157 260.626 295.419 250.273 290.975 241.333C286.53 232.393 278.743 225.599 269.327 222.444C259.911 219.289 249.636 220.032 240.763 224.51C231.891 228.988 225.148 236.835 222.016 246.323Z" fill="#E8FBF4"/>
</svg>
